<?xml version="1.0" standalone="no"?>
<!DOCTYPE svg PUBLIC "-//W3C//DTD SVG 20010904//EN"
 "http://www.w3.org/TR/2001/REC-SVG-20010904/DTD/svg10.dtd">
<svg version="1.0" xmlns="http://www.w3.org/2000/svg"
 width="2048.000000pt" height="2048.000000pt" viewBox="0 0 2048.000000 2048.000000"
 preserveAspectRatio="xMidYMid meet">
<metadata>
Created by potrace 1.14, written by Peter Selinger 2001-2017
</metadata>
<g transform="translate(0.000000,2048.000000) scale(0.100000,-0.100000)"
fill="#000000" stroke="none">
<path d="M17089 17776 c-2 -2 -50 -6 -105 -10 -114 -7 -263 -41 -356 -82 -140
-62 -274 -169 -338 -273 l-28 -45 24 -43 c55 -99 79 -199 78 -333 0 -87 -3
-129 -20 -245 -3 -22 -7 -51 -9 -65 -2 -14 -7 -50 -10 -80 -3 -30 -8 -66 -10
-80 -2 -14 -9 -63 -15 -110 -17 -133 -21 -163 -25 -190 -2 -14 -6 -43 -9 -65
-24 -176 -106 -788 -111 -820 -3 -22 -7 -53 -10 -70 -2 -16 -7 -52 -10 -80 -4
-27 -8 -61 -11 -75 -2 -14 -6 -46 -9 -71 -3 -25 -7 -55 -9 -66 -3 -11 -7 -44
-11 -74 -7 -56 -9 -72 -20 -149 -13 -86 -14 -95 -25 -177 -6 -46 -13 -95 -15
-110 -2 -16 -6 -41 -8 -58 -3 -16 -8 -55 -12 -85 -7 -62 -11 -86 -20 -150 -4
-25 -8 -56 -10 -70 -2 -14 -6 -45 -10 -70 -4 -25 -8 -56 -10 -70 -2 -14 -7
-45 -11 -70 -3 -25 -8 -58 -10 -75 -1 -16 -7 -59 -13 -95 -11 -66 -20 -134
-26 -180 -3 -24 -12 -89 -20 -140 -12 -76 -33 -227 -33 -240 0 -18 -13 -127
-18 -155 -6 -28 -5 -211 1 -264 22 -200 131 -325 315 -361 84 -16 739 -17 825
-1 216 40 328 133 379 311 25 90 27 116 31 335 4 215 13 423 19 434 2 3 6 49
10 102 4 53 9 107 11 120 2 13 6 51 10 84 8 83 15 144 20 182 3 17 9 71 15
120 13 108 19 159 24 198 5 34 24 182 31 235 7 57 16 123 20 150 2 14 7 45 10
69 3 23 7 55 9 70 3 14 7 49 11 76 3 28 8 61 10 75 2 14 7 45 10 68 7 57 9 60
96 149 201 204 419 268 604 178 164 -79 237 -263 205 -516 -13 -110 -19 -148
-25 -169 -2 -8 -6 -31 -9 -50 -4 -28 -31 -166 -52 -265 -2 -11 -6 -32 -9 -47
-3 -14 -21 -102 -41 -195 -19 -92 -37 -179 -40 -193 -2 -14 -9 -45 -14 -70 -5
-25 -12 -56 -14 -70 -3 -14 -14 -74 -26 -135 -11 -60 -23 -123 -25 -140 -3
-16 -7 -41 -10 -55 -2 -14 -7 -43 -10 -65 -4 -22 -9 -51 -11 -65 -13 -68 -11
-403 2 -472 54 -285 213 -448 496 -510 145 -31 371 -32 513 -3 255 53 453 175
580 359 l36 53 -30 59 c-74 146 -94 356 -56 586 7 45 16 103 21 138 2 19 16
103 30 185 14 83 27 159 29 170 1 11 10 58 19 105 8 47 18 101 21 120 3 19 14
85 25 145 11 61 22 126 25 145 3 19 8 48 11 63 3 16 7 38 8 50 2 12 6 36 9 52
4 17 9 50 12 75 4 25 8 56 10 70 22 137 26 164 44 300 20 149 20 148 36 315
12 120 7 331 -10 431 -59 353 -244 633 -517 782 -71 38 -215 88 -288 99 -122
18 -353 8 -510 -22 -44 -9 -210 -70 -270 -99 -85 -42 -198 -115 -265 -170
-182 -150 -342 -370 -411 -566 -20 -57 -26 -66 -53 -71 -17 -4 -32 -5 -34 -2
-3 2 -1 23 3 46 5 23 11 65 14 92 6 43 15 107 31 205 2 14 16 106 30 205 41
280 45 310 50 345 3 14 7 48 10 75 3 28 8 61 10 75 48 241 54 491 16 608 -76
233 -231 359 -509 411 -51 10 -127 19 -169 20 -42 1 -80 4 -83 6 -4 3 -9 3
-11 1z"/>
<path d="M2779 17616 c-2 -2 -38 -7 -79 -10 -398 -36 -789 -160 -1115 -354
-33 -20 -61 -40 -63 -44 -2 -4 -8 -8 -14 -8 -28 0 -253 -181 -382 -306 -223
-217 -445 -552 -576 -869 -105 -253 -196 -608 -225 -870 -4 -33 -9 -71 -11
-85 -22 -137 -22 -709 1 -860 11 -75 16 -109 20 -144 2 -21 7 -46 9 -55 3 -9
7 -34 11 -56 35 -240 174 -605 309 -815 123 -190 246 -324 436 -474 177 -139
539 -292 785 -331 75 -12 100 -16 125 -21 156 -27 563 -26 780 2 480 61 982
262 1233 493 123 114 136 205 57 391 -15 36 -55 137 -89 225 -35 88 -67 169
-72 180 -5 11 -20 51 -34 88 -76 205 -131 262 -255 261 -70 0 -129 -22 -239
-88 -153 -92 -303 -154 -455 -188 -113 -25 -118 -25 -191 -33 -306 -31 -536
45 -706 233 -55 61 -136 189 -158 252 -7 19 -17 44 -21 55 -33 78 -66 227 -77
342 -14 144 -8 414 11 523 3 14 7 44 10 67 6 45 6 47 36 178 124 532 437 884
860 965 111 22 138 24 265 24 361 0 641 -93 883 -292 l40 -32 57 46 c278 227
548 684 540 914 -2 56 -18 127 -38 170 -26 56 -130 160 -225 223 -171 114
-499 237 -700 262 -26 4 -54 8 -62 10 -8 2 -42 7 -75 11 -33 3 -69 8 -80 11
-23 6 -520 14 -526 9z"/>
<path d="M6080 16620 c-25 -4 -70 -10 -100 -13 -62 -7 -226 -35 -252 -43 -10
-3 -28 -7 -40 -9 -45 -9 -185 -53 -278 -89 -595 -230 -1011 -696 -1213 -1356
-20 -63 -39 -131 -43 -150 -9 -43 -10 -45 -23 -103 -6 -26 -14 -64 -16 -85 -3
-20 -8 -46 -10 -58 -10 -44 -25 -163 -32 -249 -14 -180 -8 -587 10 -680 3 -11
8 -42 11 -70 21 -146 100 -394 173 -539 246 -493 657 -780 1248 -872 161 -25
484 -24 680 1 309 41 603 136 837 271 75 44 193 121 227 149 200 163 366 349
489 548 140 224 277 582 326 847 2 14 11 63 20 110 8 47 18 110 21 140 3 30 8
62 10 70 2 8 7 67 11 130 35 571 -91 1059 -367 1427 -78 104 -249 265 -358
338 -190 126 -441 226 -653 259 -82 13 -105 16 -168 25 -75 10 -444 11 -510 1z
m255 -1260 c133 -28 238 -117 297 -255 50 -115 62 -194 62 -390 0 -234 -26
-449 -75 -625 -49 -176 -149 -344 -251 -422 -114 -87 -231 -122 -408 -122
-123 0 -126 1 -203 36 -153 72 -231 198 -272 443 -11 60 -13 339 -4 425 15
149 18 167 39 270 63 312 191 507 390 598 119 54 286 70 425 42z"/>
<path d="M8975 16618 c-294 -51 -524 -185 -645 -374 l-29 -46 28 -57 c46 -89
70 -188 75 -301 0 -14 -16 -199 -19 -210 0 -3 -4 -32 -9 -65 -4 -33 -16 -116
-27 -185 -11 -69 -22 -136 -24 -150 -10 -65 -87 -501 -121 -680 -11 -64 -44
-249 -49 -280 -3 -19 -8 -42 -10 -50 -10 -33 -55 -391 -61 -485 -13 -184 -8
-394 12 -545 12 -92 62 -278 97 -358 185 -427 573 -598 1173 -517 120 16 295
77 424 147 267 146 488 394 576 646 19 55 27 68 47 70 l24 3 -1 -138 c0 -194
32 -345 100 -461 64 -109 195 -203 347 -246 113 -33 134 -36 297 -41 286 -9
526 63 722 215 72 57 148 149 148 181 0 10 -9 34 -20 54 -45 81 -60 167 -55
329 2 83 6 162 9 176 2 14 7 48 10 75 6 49 13 110 21 170 2 17 11 86 20 155 8
69 18 141 21 160 2 19 7 53 9 75 3 22 7 51 10 65 2 14 7 48 10 75 5 50 13 107
20 155 2 14 6 45 10 70 3 25 8 61 11 80 2 19 6 49 8 65 6 46 15 113 26 185 14
93 20 139 26 185 2 22 7 51 9 65 2 14 6 43 9 65 11 82 44 314 51 355 2 14 6
45 9 70 3 25 8 54 10 65 2 11 7 45 11 75 4 30 9 64 11 75 2 10 6 37 9 60 7 44
34 217 39 251 34 198 25 392 -25 501 -40 89 -117 152 -229 189 -49 16 -98 18
-425 19 -459 1 -552 -9 -670 -75 -82 -45 -137 -116 -168 -215 -22 -71 -26
-101 -32 -270 -7 -205 -15 -357 -19 -381 -2 -10 -7 -55 -11 -99 -4 -44 -8 -82
-10 -85 -1 -3 -6 -41 -9 -85 -4 -44 -9 -87 -11 -95 -2 -8 -6 -44 -10 -79 -3
-36 -8 -79 -10 -95 -2 -17 -7 -52 -10 -78 -3 -27 -7 -69 -10 -95 -3 -27 -8
-61 -10 -78 -2 -16 -7 -52 -10 -80 -3 -27 -8 -66 -11 -85 -3 -19 -16 -116 -29
-215 -14 -99 -30 -211 -36 -250 -6 -38 -12 -81 -14 -95 -4 -29 -25 -160 -30
-187 -2 -10 -4 -25 -4 -34 -2 -27 -139 -166 -215 -217 -179 -120 -403 -130
-541 -24 -27 21 -54 47 -60 59 -6 11 -16 27 -23 35 -15 18 -42 92 -50 138 -13
68 -5 300 13 410 2 14 7 43 10 65 11 81 74 384 151 730 3 11 9 40 14 65 5 25
20 97 34 160 30 139 32 149 52 270 8 52 17 106 19 120 32 182 24 379 -22 520
-70 215 -268 357 -563 404 -94 15 -317 17 -395 4z"/>
<path d="M14300 16619 c-36 -5 -85 -11 -110 -13 -25 -3 -76 -12 -115 -21 -38
-8 -81 -18 -95 -21 -14 -3 -77 -21 -140 -40 -438 -136 -856 -459 -1122 -869
-145 -223 -295 -590 -344 -840 -2 -11 -6 -31 -9 -45 -6 -33 -13 -73 -21 -129
-4 -25 -8 -55 -10 -66 -20 -107 -20 -604 0 -710 2 -11 7 -47 10 -80 4 -33 18
-112 32 -175 118 -531 401 -912 837 -1124 168 -81 406 -149 602 -171 22 -3 74
-9 115 -14 75 -10 551 -8 567 2 4 3 37 8 73 12 74 7 94 10 170 25 30 6 66 13
80 16 97 19 270 78 367 126 164 80 278 170 371 291 55 73 77 113 113 217 32
92 36 274 9 381 -42 162 -138 317 -255 414 l-42 34 -34 -23 c-116 -79 -335
-169 -469 -193 -14 -2 -45 -9 -70 -14 -94 -21 -362 -32 -430 -18 -126 27 -187
43 -228 61 -153 68 -277 203 -333 365 -40 117 -51 191 -51 353 0 113 2 145 18
245 61 400 244 678 500 764 88 30 228 37 308 16 167 -44 260 -204 220 -378
-17 -72 -16 -74 71 -106 138 -52 333 -67 471 -37 306 66 516 289 550 586 3 30
8 58 10 61 5 9 6 199 1 224 -3 11 -8 43 -12 70 -9 63 -39 152 -78 230 -147
298 -475 502 -922 575 -33 5 -76 12 -95 15 -58 10 -440 13 -510 4z"/>
<path d="M4627 12004 c-1 -1 -51 -5 -112 -9 -60 -3 -121 -8 -135 -10 -14 -2
-50 -6 -80 -10 -91 -10 -131 -16 -220 -31 -47 -8 -101 -17 -120 -20 -19 -3
-53 -10 -75 -16 -22 -5 -48 -12 -57 -14 -10 -2 -26 -6 -35 -8 -380 -86 -797
-260 -1139 -474 -116 -73 -339 -231 -391 -277 -6 -5 -44 -39 -85 -74 -120
-106 -316 -308 -408 -421 -25 -30 -48 -57 -51 -60 -3 -3 -38 -49 -77 -102
-242 -329 -428 -675 -576 -1075 -48 -129 -114 -338 -132 -418 -1 -5 -12 -48
-24 -95 -12 -47 -23 -92 -25 -100 -11 -51 -35 -170 -40 -195 -41 -234 -55
-336 -80 -600 -13 -133 -20 -723 -11 -860 2 -27 7 -93 10 -145 4 -52 9 -106
11 -120 3 -14 7 -54 10 -90 7 -73 6 -70 35 -240 17 -99 56 -286 74 -355 2 -5
6 -23 10 -40 4 -16 26 -88 48 -160 248 -802 733 -1406 1398 -1740 318 -161
700 -271 1070 -310 30 -3 75 -8 100 -11 181 -20 592 -20 812 1 29 3 80 7 113
10 78 8 136 15 155 20 8 2 35 7 60 10 25 3 56 8 70 10 14 3 41 7 60 10 149 23
468 107 634 167 175 63 180 65 258 98 390 170 750 413 846 573 82 136 71 258
-48 522 -5 11 -48 119 -95 240 -47 121 -89 229 -94 240 -5 11 -40 99 -77 195
-93 242 -132 310 -214 372 -76 58 -174 69 -296 33 -67 -19 -161 -69 -314 -164
-127 -79 -435 -205 -577 -236 -54 -12 -65 -14 -81 -19 -116 -37 -451 -60 -612
-43 -103 11 -123 15 -191 32 -186 48 -349 144 -494 289 -171 172 -291 399
-365 691 -27 107 -32 132 -46 240 -3 28 -8 53 -10 56 -20 35 -20 673 1 709 1
3 6 41 10 85 4 44 8 82 10 85 2 3 6 27 9 53 4 26 11 71 17 100 6 29 13 63 15
77 3 14 16 70 30 125 177 702 534 1165 1052 1366 73 28 231 72 297 83 47 7
136 18 180 22 56 4 322 4 370 -1 55 -5 216 -25 240 -30 6 -1 28 -5 50 -10 146
-28 316 -83 452 -146 46 -22 86 -39 88 -39 2 0 41 -23 87 -51 98 -60 178 -118
233 -171 22 -21 45 -38 50 -38 22 1 153 110 253 210 188 189 409 508 532 767
44 91 99 246 107 298 2 17 8 46 12 66 13 57 5 218 -12 277 -42 140 -126 246
-301 376 -141 106 -264 175 -468 265 -115 51 -430 145 -590 177 -135 26 -319
51 -528 70 -61 6 -578 13 -583 8z"/>
<path d="M8357 10504 c-1 -2 -35 -5 -75 -8 -104 -9 -133 -14 -264 -46 -249
-63 -456 -171 -632 -331 -60 -55 -160 -178 -187 -231 l-21 -41 45 -96 c86
-184 107 -286 102 -486 -2 -77 -6 -158 -10 -180 -5 -34 -12 -90 -41 -310 -3
-22 -9 -65 -14 -95 -5 -30 -12 -71 -14 -90 -5 -35 -14 -93 -22 -140 -2 -14
-15 -92 -29 -175 -14 -82 -28 -161 -30 -175 -3 -14 -10 -52 -15 -85 -6 -33
-13 -71 -16 -85 -2 -14 -18 -101 -34 -195 -17 -93 -32 -181 -35 -195 -3 -14
-23 -126 -45 -250 -22 -124 -44 -247 -49 -275 -6 -27 -15 -77 -20 -110 -6 -33
-13 -76 -16 -95 -15 -89 -46 -294 -51 -342 -3 -29 -7 -55 -9 -58 -2 -3 -6 -45
-10 -95 -4 -49 -9 -92 -10 -95 -17 -29 -26 -600 -12 -768 18 -231 67 -461 133
-640 38 -99 113 -255 126 -260 4 -2 8 -8 8 -13 0 -13 64 -103 118 -167 108
-129 237 -228 392 -305 91 -44 252 -102 315 -112 17 -3 53 -10 80 -15 135 -26
192 -30 380 -30 170 1 182 2 375 26 88 11 327 76 436 119 252 98 486 249 669
430 117 117 179 192 267 324 94 143 157 276 204 439 2 7 20 12 43 12 l40 0 -5
-82 c-12 -174 -10 -249 11 -406 12 -93 67 -281 103 -357 88 -183 245 -321 457
-403 70 -26 137 -47 185 -57 8 -2 35 -8 60 -13 25 -6 77 -14 115 -17 39 -4 84
-9 100 -11 48 -5 316 -5 365 1 301 37 536 120 755 269 108 73 239 203 279 275
l28 53 -41 87 c-68 145 -85 233 -85 441 0 142 6 224 29 400 2 19 7 60 10 90 4
30 8 66 10 80 2 14 6 50 10 80 4 30 8 66 10 80 3 14 7 45 10 70 3 25 8 63 10
85 3 22 7 54 9 70 2 17 7 53 11 80 3 28 8 66 11 85 2 19 6 49 9 65 5 30 15
110 20 155 2 23 20 152 30 225 2 17 7 53 10 80 4 28 8 63 11 78 2 15 13 96 25
180 11 84 22 163 24 177 2 14 6 48 10 75 3 28 8 57 10 65 2 8 6 42 10 75 3 33
10 87 15 120 5 33 12 83 16 110 3 28 7 57 9 65 1 8 6 40 10 70 3 30 8 66 10
80 2 14 18 122 35 240 17 118 32 226 35 240 2 14 7 49 10 79 4 30 8 61 10 70
6 37 16 99 20 136 3 22 10 65 15 95 5 30 12 75 15 100 3 25 10 72 15 105 5 33
12 78 15 100 4 22 8 51 10 65 3 14 11 72 20 130 9 58 18 116 20 130 68 390 44
698 -68 873 -59 92 -168 173 -279 209 -109 34 -179 37 -773 34 -324 -1 -603
-6 -620 -10 -16 -4 -66 -15 -111 -26 -274 -64 -425 -225 -474 -505 -16 -94
-19 -142 -25 -405 -5 -232 -8 -301 -25 -455 -5 -49 -12 -112 -15 -140 -3 -27
-7 -66 -9 -85 -3 -19 -7 -64 -11 -100 -3 -36 -8 -76 -10 -90 -3 -14 -7 -54
-10 -90 -3 -35 -7 -76 -10 -90 -2 -14 -7 -54 -10 -90 -4 -36 -8 -72 -10 -80
-1 -8 -6 -42 -9 -75 -4 -33 -11 -94 -16 -135 -5 -41 -12 -97 -15 -125 -3 -27
-7 -61 -10 -75 -2 -14 -7 -50 -10 -81 -3 -31 -7 -65 -9 -75 -2 -11 -7 -46 -10
-79 -4 -33 -16 -127 -27 -210 -11 -82 -22 -168 -25 -190 -3 -22 -9 -65 -14
-95 -10 -58 -16 -105 -25 -180 -3 -25 -9 -70 -15 -100 -10 -60 -19 -118 -25
-165 -2 -16 -16 -99 -29 -184 l-26 -153 -44 -52 c-179 -207 -354 -331 -541
-382 -80 -21 -262 -26 -343 -9 -175 38 -304 145 -374 309 -30 69 -33 82 -54
204 -7 43 -7 260 1 337 5 52 18 155 30 235 2 14 7 45 10 70 3 25 8 52 10 60 2
8 6 31 9 50 7 41 9 52 42 218 14 70 27 138 30 152 11 55 116 540 134 615 18
77 41 189 41 200 0 2 5 19 10 37 11 40 48 209 55 258 3 19 7 43 10 52 3 10 7
28 9 40 2 13 9 52 15 88 7 36 14 76 16 90 2 14 6 34 9 46 3 12 7 36 10 55 48
334 54 418 41 599 -24 366 -194 635 -496 789 -101 52 -309 114 -425 126 -130
15 -430 27 -438 19z"/>
<path d="M14947 10504 c-1 -1 -27 -4 -57 -7 -370 -40 -855 -268 -1098 -517
l-49 -51 43 -123 c45 -130 68 -228 80 -336 12 -115 5 -566 -11 -650 -1 -8 -6
-51 -9 -95 -4 -44 -9 -96 -11 -115 -3 -19 -7 -60 -10 -90 -5 -49 -17 -159 -30
-260 -2 -19 -7 -60 -10 -90 -3 -30 -8 -66 -10 -80 -2 -14 -7 -50 -10 -81 -3
-31 -7 -65 -9 -75 -2 -11 -7 -46 -10 -79 -18 -155 -24 -206 -31 -245 -2 -14
-7 -49 -10 -79 -4 -30 -8 -61 -10 -70 -1 -9 -6 -45 -10 -81 -4 -36 -9 -72 -10
-81 -2 -9 -6 -40 -10 -70 -3 -30 -8 -65 -10 -79 -2 -14 -7 -45 -10 -70 -8 -72
-15 -123 -20 -150 -5 -28 -12 -82 -20 -150 -6 -52 -16 -126 -21 -154 -3 -18
-17 -117 -30 -221 -3 -22 -9 -65 -14 -95 -5 -30 -12 -77 -15 -105 -3 -27 -10
-77 -15 -110 -5 -33 -12 -82 -15 -110 -4 -27 -9 -63 -12 -80 -5 -33 -10 -68
-18 -129 -3 -21 -7 -50 -9 -65 -3 -14 -8 -46 -11 -71 -6 -47 -9 -65 -20 -140
-11 -75 -14 -93 -20 -140 -8 -55 -14 -97 -20 -130 -2 -14 -7 -49 -10 -79 -4
-30 -8 -63 -11 -74 -2 -11 -9 -57 -15 -101 -6 -45 -13 -90 -15 -101 -1 -11
-10 -69 -18 -130 -9 -60 -18 -119 -20 -130 -2 -11 -7 -42 -10 -70 -6 -43 -15
-102 -31 -205 -2 -14 -7 -47 -11 -75 -5 -27 -9 -52 -9 -55 -1 -3 -5 -30 -9
-60 -4 -30 -11 -77 -16 -105 -5 -27 -12 -72 -15 -99 -3 -27 -8 -52 -9 -55 -2
-3 -7 -31 -10 -61 -4 -30 -8 -66 -11 -80 -7 -42 -37 -223 -41 -255 -2 -16 -7
-46 -10 -65 -4 -19 -8 -48 -10 -65 -3 -16 -7 -39 -9 -51 -2 -11 -7 -45 -11
-75 -4 -30 -12 -94 -19 -144 -17 -122 -17 -335 -1 -413 42 -197 161 -310 379
-362 121 -29 170 -31 652 -31 397 -1 572 4 615 16 8 2 35 7 58 10 113 16 262
76 347 140 98 74 194 208 246 345 27 71 66 222 73 283 11 85 22 198 30 287 5
51 14 150 21 225 3 28 7 77 10 110 3 33 8 85 10 115 3 30 8 84 11 120 3 36 7
79 8 95 2 17 6 66 10 110 4 44 9 96 11 115 3 19 7 64 10 100 3 36 7 81 10 100
3 19 7 64 10 100 3 36 7 81 10 100 2 19 7 60 10 90 3 30 8 69 9 85 8 61 19
161 21 185 5 50 17 145 20 166 2 11 6 50 10 86 7 62 9 66 34 70 58 9 66 -1 66
-77 2 -181 72 -439 161 -585 8 -14 20 -37 25 -52 6 -16 14 -28 18 -28 4 0 13
-12 20 -27 42 -93 255 -314 387 -404 162 -109 407 -209 574 -234 19 -2 62 -9
95 -14 138 -22 474 -9 640 24 306 60 599 195 845 389 433 342 769 887 986
1601 23 73 80 289 89 332 2 10 17 83 33 163 17 80 33 163 36 185 4 22 11 65
16 95 12 72 17 106 30 215 27 220 31 261 46 525 9 139 9 476 1 617 -7 119 -10
154 -28 303 -15 128 -18 152 -24 170 -2 8 -7 38 -11 65 -3 28 -8 53 -10 56 -2
3 -6 21 -9 40 -36 206 -155 548 -262 749 -47 90 -141 243 -173 283 -98 123
-173 207 -241 272 -197 188 -413 316 -680 405 -116 39 -270 71 -414 86 -128
13 -413 7 -500 -10 -11 -2 -42 -7 -70 -10 -27 -4 -66 -11 -85 -16 -19 -5 -47
-11 -61 -14 -61 -10 -186 -50 -272 -86 -207 -86 -338 -173 -518 -342 -148
-139 -315 -412 -379 -620 -6 -21 -17 -38 -23 -39 -7 0 -25 -2 -40 -3 l-28 -2
6 91 c37 486 -91 793 -399 954 -127 67 -281 100 -494 105 -51 1 -93 1 -95 0z
m1883 -1828 c188 -40 325 -153 432 -361 33 -64 81 -194 94 -255 42 -200 49
-275 49 -510 0 -196 -12 -375 -31 -480 -3 -14 -7 -45 -10 -70 -11 -83 -56
-274 -91 -385 -133 -416 -375 -685 -688 -765 -104 -27 -261 -25 -345 5 -103
36 -111 40 -177 90 -97 72 -183 183 -247 317 -29 61 -36 86 -32 115 3 21 8 65
11 98 3 33 8 76 10 95 10 85 16 138 20 185 3 28 8 66 10 85 5 37 11 92 20 180
3 30 7 71 10 90 3 19 7 60 10 90 10 107 17 165 20 190 2 14 7 57 10 95 5 59
34 238 49 310 56 260 150 482 266 627 69 87 96 113 175 165 130 87 289 119
435 89z"/>
</g>
</svg>
